<?xml version="1.0" encoding="UTF-8" standalone="no"?>
<!-- Generator: Adobe Illustrator 18.0.0, SVG Export Plug-In . SVG Version: 6.00 Build 0)  -->

<svg
   xmlns:dc="http://purl.org/dc/elements/1.1/"
   xmlns:cc="http://creativecommons.org/ns#"
   xmlns:rdf="http://www.w3.org/1999/02/22-rdf-syntax-ns#"
   xmlns:svg="http://www.w3.org/2000/svg"
   xmlns="http://www.w3.org/2000/svg"
   xmlns:sodipodi="http://sodipodi.sourceforge.net/DTD/sodipodi-0.dtd"
   xmlns:inkscape="http://www.inkscape.org/namespaces/inkscape"
   version="1.1"
   id="Capa_1"
   x="0px"
   y="0px"
   viewBox="0 0 210 210"
   xml:space="preserve"
   sodipodi:docname="logo.svg"
   width="210"
   height="210"
   inkscape:version="0.92.4 (unknown)"
   inkscape:export-filename="/data/work/anyways/projects/lantis/md5sum-dotnet/logo.png"
   inkscape:export-xdpi="58.514286"
   inkscape:export-ydpi="58.514286"><metadata
   id="metadata39"><rdf:RDF><cc:Work
       rdf:about=""><dc:format>image/svg+xml</dc:format><dc:type
         rdf:resource="http://purl.org/dc/dcmitype/StillImage" /><dc:title></dc:title></cc:Work></rdf:RDF></metadata><defs
   id="defs37" /><sodipodi:namedview
   pagecolor="#ffffff"
   bordercolor="#666666"
   borderopacity="1"
   objecttolerance="10"
   gridtolerance="10"
   guidetolerance="10"
   inkscape:pageopacity="0"
   inkscape:pageshadow="2"
   inkscape:window-width="1853"
   inkscape:window-height="1172"
   id="namedview35"
   showgrid="false"
   fit-margin-top="10"
   fit-margin-left="10"
   fit-margin-bottom="10"
   fit-margin-right="10"
   units="mm"
   inkscape:zoom="1.2421053"
   inkscape:cx="105"
   inkscape:cy="102.33301"
   inkscape:window-x="67"
   inkscape:window-y="0"
   inkscape:window-maximized="1"
   inkscape:current-layer="Capa_1" />
<path
   d="M 41.686,200.00001 H 80.61 l 2.293,-40.266 h 38.262 l -2.293,40.266 h 38.924 l 2.293,-40.266 H 200 v -38.86 h -37.697 l 1.504,-26.413003 H 200 v -38.86 h -33.98 l 2.293,-40.266 h -38.925 l -2.293,40.266 h -38.26 l 2.293,-40.266 H 52.205 l -2.293,40.266 H 10 v 38.86 H 47.698 L 46.194,120.87401 H 10 v 38.86 H 43.98 Z M 86.622,94.461007 h 38.261 l -1.505,26.413003 H 85.117 Z"
   id="path2"
   inkscape:connector-curvature="0" />
<g
   id="g4"
   transform="translate(10,12.667007)">
</g>
<g
   id="g6"
   transform="translate(10,12.667007)">
</g>
<g
   id="g8"
   transform="translate(10,12.667007)">
</g>
<g
   id="g10"
   transform="translate(10,12.667007)">
</g>
<g
   id="g12"
   transform="translate(10,12.667007)">
</g>
<g
   id="g14"
   transform="translate(10,12.667007)">
</g>
<g
   id="g16"
   transform="translate(10,12.667007)">
</g>
<g
   id="g18"
   transform="translate(10,12.667007)">
</g>
<g
   id="g20"
   transform="translate(10,12.667007)">
</g>
<g
   id="g22"
   transform="translate(10,12.667007)">
</g>
<g
   id="g24"
   transform="translate(10,12.667007)">
</g>
<g
   id="g26"
   transform="translate(10,12.667007)">
</g>
<g
   id="g28"
   transform="translate(10,12.667007)">
</g>
<g
   id="g30"
   transform="translate(10,12.667007)">
</g>
<g
   id="g32"
   transform="translate(10,12.667007)">
</g>
</svg>